<?xml version="1.0" encoding="UTF-8"?> <svg xmlns="http://www.w3.org/2000/svg" xmlns:xlink="http://www.w3.org/1999/xlink" id="Layer_1" data-name="Layer 1" width="400" height="150" viewBox="0 0 400 150"><defs><clipPath id="clip-path"><circle cx="109.3215" cy="78.75165" r="31.93363" style="fill:none"></circle></clipPath></defs><rect x="224.37745" y="13.98436" width="132.60208" height="122.03129" rx="2.05394" style="fill:#f2f2f3"></rect><path d="M356.97959,16.03829a2.054,2.054,0,0,0-2.05394-2.05394H226.43134a2.054,2.054,0,0,0-2.05394,2.05394v8.08177H356.97959Z" style="opacity:0.05"></path><circle cx="229.65293" cy="19.07732" r="1.83457" style="fill:#fff"></circle><circle cx="236.1318" cy="19.07732" r="1.83457" style="fill:#fff"></circle><circle cx="242.61067" cy="19.07732" r="1.83457" style="fill:#fff"></circle><rect x="239.80892" y="102.13043" width="101.73913" height="21.70438" rx="1.2" style="fill:#fff"></rect><line x1="245.92512" y1="113.55652" x2="324.02947" y2="113.55652" style="fill:none;stroke:#000;stroke-linecap:round;stroke-linejoin:round;stroke-width:2.4000000000000004px;opacity:0.05"></line><line x1="245.92512" y1="118.35655" x2="309.00338" y2="118.35655" style="fill:none;stroke:#000;stroke-linecap:round;stroke-linejoin:round;stroke-width:2.4000000000000004px;opacity:0.05"></line><line x1="245.92512" y1="107.58259" x2="294.44686" y2="107.58259" style="fill:none;stroke:#d8d8d9;stroke-linecap:round;stroke-linejoin:round;stroke-width:2.4000000000000004px"></line><rect x="239.80892" y="74.06085" width="101.73913" height="21.70438" rx="1.2" style="fill:#fff"></rect><line x1="245.92512" y1="85.48694" x2="324.02947" y2="85.48694" style="fill:none;stroke:#000;stroke-linecap:round;stroke-linejoin:round;stroke-width:2.4000000000000004px;opacity:0.05"></line><line x1="245.92512" y1="90.28697" x2="309.00338" y2="90.28697" style="fill:none;stroke:#000;stroke-linecap:round;stroke-linejoin:round;stroke-width:2.4000000000000004px;opacity:0.05"></line><line x1="245.92512" y1="79.51301" x2="294.44686" y2="79.51301" style="fill:none;stroke:#d8d8d9;stroke-linecap:round;stroke-linejoin:round;stroke-width:2.4000000000000004px"></line><rect x="239.80892" y="47.19128" width="101.73913" height="20.50437" rx="1.2" style="fill:#fff"></rect><line x1="253.12516" y1="58.03042" x2="331.22951" y2="58.03042" style="fill:none;stroke:#000;stroke-linecap:round;stroke-linejoin:round;stroke-width:2.4000000000000004px;opacity:0.05"></line><line x1="253.12516" y1="62.83045" x2="322.15125" y2="62.83045" style="fill:none;stroke:#000;stroke-linecap:round;stroke-linejoin:round;stroke-width:2.4000000000000004px;opacity:0.05"></line><line x1="276.13386" y1="52.05649" x2="308.8469" y2="52.05649" style="fill:none;stroke:#39a5b3;stroke-linecap:round;stroke-linejoin:round;stroke-width:2.4000000000000004px"></line><line x1="253.12516" y1="52.05649" x2="269.09038" y2="52.05649" style="fill:none;stroke:#39a5b3;stroke-linecap:round;stroke-linejoin:round;stroke-width:2.4000000000000004px"></line><path d="M245.96837,56.00332a.60024.60024,0,0,0-.484-.4084l-3.54961-.51621-1.58789-3.21621a.62408.62408,0,0,0-1.07579,0l-1.58789,3.21621-3.55078.51621a.5995.5995,0,0,0-.33164,1.023l2.56875,2.5043-.607,3.53554a.6002.6002,0,0,0,.8707.63223l3.17579-1.66875L242.98478,63.29a.6002.6002,0,0,0,.8707-.63223l-.607-3.53613L245.816,56.618A.59919.59919,0,0,0,245.96837,56.00332Z" style="fill:#f9d35d"></path><path d="M314.83411,38.84306H236.91966a3.6,3.6,0,1,1,0-7.2h77.91445a3.6,3.6,0,0,1,0,7.2Z" style="fill:#fff"></path><path d="M327.473,38.84306h16.96433a3.6,3.6,0,1,0,0-7.2H327.473a3.6,3.6,0,1,0,0,7.2Z" style="fill:#d8d8d9"></path><polygon points="206.814 79.891 206.814 70.109 216.467 75 206.814 79.891" style="fill:#c8543c"></polygon><line x1="183.87967" y1="75.00001" x2="210.85798" y2="75.00001" style="fill:none;stroke:#c8543c;stroke-linecap:round;stroke-miterlimit:10"></line><rect x="43.02046" y="28.38445" width="132.60208" height="93.23111" rx="2.05394" style="fill:#f2f2f3"></rect><path d="M175.6226,30.43838a2.054,2.054,0,0,0-2.05394-2.05394H45.07435a2.054,2.054,0,0,0-2.05394,2.05394v8.08177H175.6226Z" style="opacity:0.05"></path><circle cx="48.29594" cy="33.47741" r="1.83457" style="fill:#fff"></circle><circle cx="54.77481" cy="33.47741" r="1.83457" style="fill:#fff"></circle><circle cx="61.25368" cy="33.47741" r="1.83457" style="fill:#fff"></circle><circle cx="109.3215" cy="78.75165" r="31.93363" style="fill:#fff"></circle><g style="clip-path:url(#clip-path)"><line x1="66.89609" y1="52.95166" x2="101.4874" y2="52.95166" style="fill:none;stroke:#39a5b3;stroke-linecap:round;stroke-miterlimit:10;stroke-width:4.800000000000001px"></line><line x1="110.78809" y1="52.95166" x2="144.17938" y2="52.95166" style="fill:none;stroke:#f2f2f3;stroke-linecap:round;stroke-miterlimit:10;stroke-width:4.800000000000001px"></line><line x1="66.89609" y1="61.56036" x2="91.88734" y2="61.56036" style="fill:none;stroke:#f2f2f3;stroke-linecap:round;stroke-miterlimit:10;stroke-width:4.800000000000001px"></line><line x1="66.89609" y1="70.16905" x2="105.08742" y2="70.16905" style="fill:none;stroke:#f2f2f3;stroke-linecap:round;stroke-miterlimit:10;stroke-width:4.800000000000001px"></line><line x1="114.38811" y1="70.16905" x2="144.17938" y2="70.16905" style="fill:none;stroke:#f2f2f3;stroke-linecap:round;stroke-miterlimit:10;stroke-width:4.800000000000001px"></line><line x1="95.18169" y1="78.77775" x2="124.28754" y2="78.77775" style="fill:none;stroke:#f2f2f3;stroke-linecap:round;stroke-miterlimit:10;stroke-width:4.800000000000001px"></line><line x1="66.89609" y1="78.77775" x2="85.881" y2="78.77775" style="fill:none;stroke:#39a5b3;stroke-linecap:round;stroke-miterlimit:10;stroke-width:4.800000000000001px"></line><line x1="132.48607" y1="61.56036" x2="155.59189" y2="61.56036" style="fill:none;stroke:#f2f2f3;stroke-linecap:round;stroke-miterlimit:10;stroke-width:4.800000000000001px"></line><line x1="101.18803" y1="61.56036" x2="123.18539" y2="61.56036" style="fill:none;stroke:#39a5b3;stroke-linecap:round;stroke-miterlimit:10;stroke-width:4.800000000000001px"></line><line x1="133.58823" y1="78.77775" x2="144.17938" y2="78.77775" style="fill:none;stroke:#f2f2f3;stroke-linecap:round;stroke-miterlimit:10;stroke-width:4.800000000000001px"></line><line x1="64.49608" y1="87.38644" x2="99.08738" y2="87.38644" style="fill:none;stroke:#f2f2f3;stroke-linecap:round;stroke-miterlimit:10;stroke-width:4.800000000000001px"></line><line x1="108.38807" y1="87.38644" x2="144.17938" y2="87.38644" style="fill:none;stroke:#39a5b3;stroke-linecap:round;stroke-miterlimit:10;stroke-width:4.800000000000001px"></line><line x1="66.89609" y1="95.99514" x2="112.28746" y2="95.99514" style="fill:none;stroke:#f2f2f3;stroke-linecap:round;stroke-miterlimit:10;stroke-width:4.800000000000001px"></line><line x1="121.58816" y1="95.99514" x2="144.17938" y2="95.99514" style="fill:none;stroke:#f2f2f3;stroke-linecap:round;stroke-miterlimit:10;stroke-width:4.800000000000001px"></line><line x1="66.89609" y1="104.60383" x2="101.4874" y2="104.60383" style="fill:none;stroke:#39a5b3;stroke-linecap:round;stroke-miterlimit:10;stroke-width:4.800000000000001px"></line><line x1="110.78809" y1="104.60383" x2="144.17938" y2="104.60383" style="fill:none;stroke:#f2f2f3;stroke-linecap:round;stroke-miterlimit:10;stroke-width:4.800000000000001px"></line></g><circle cx="109.3215" cy="78.75165" r="31.93363" style="fill:none;stroke:#39a5b3;stroke-linejoin:round;stroke-width:6px"></circle><line x1="134.23337" y1="103.66352" x2="156.46924" y2="125.89939" style="fill:none;stroke:#39a5b3;stroke-linecap:round;stroke-linejoin:round;stroke-width:7.2px"></line><g style="opacity:0.05"><circle cx="109.3215" cy="78.75165" r="31.93363" style="fill:none;stroke:#39a5b3;stroke-linejoin:round;stroke-width:6px"></circle><line x1="134.23337" y1="103.66352" x2="156.46924" y2="125.89939" style="fill:none;stroke:#39a5b3;stroke-linecap:round;stroke-linejoin:round;stroke-width:7.2px"></line></g></svg> 